<?xml version="1.0" encoding="UTF-8"?>
<svg id="Layer_1" data-name="Layer 1" xmlns="http://www.w3.org/2000/svg" xmlns:xlink="http://www.w3.org/1999/xlink" viewBox="0 0 966.02 926.05">
  <defs>
    <style>
      .cls-1 {
        fill: url(#linear-gradient-2);
      }

      .cls-2 {
        fill: url(#linear-gradient-4);
      }

      .cls-3 {
        fill: url(#linear-gradient-3);
      }

      .cls-4 {
        fill: url(#linear-gradient-5);
      }

      .cls-5 {
        fill: url(#linear-gradient);
      }
    </style>
    <linearGradient id="linear-gradient" x1="568.92" y1="343.07" x2="966.02" y2="343.07" gradientUnits="userSpaceOnUse">
      <stop offset="0" stop-color="#4f39f6"/>
      <stop offset="1" stop-color="#301964"/>
    </linearGradient>
    <linearGradient id="linear-gradient-2" x1="465.91" y1="742.52" x2="880.86" y2="742.52" xlink:href="#linear-gradient"/>
    <linearGradient id="linear-gradient-3" x1="78.49" y1="716.89" x2="409.88" y2="716.89" xlink:href="#linear-gradient"/>
    <linearGradient id="linear-gradient-4" x1="272.21" y1="192.14" x2="662.5" y2="192.14" xlink:href="#linear-gradient"/>
    <linearGradient id="linear-gradient-5" x1="0" y1="356.88" x2="402.55" y2="356.88" xlink:href="#linear-gradient"/>
  </defs>
  <path class="cls-5" d="M964.99,443.61l-23.55,70.62c-2.68,8.05-10.19,13.5-18.68,13.57l-304.49,2.32c-6.67.05-12.91-3.25-16.63-8.78l-29.36-43.72c-4.66-6.94-4.47-16.07.48-22.81l213.36-290.69c6.47-8.81,18.85-10.74,27.68-4.3l48.71,35.47c8.75,6.37,10.78,18.57,4.57,27.43l-117.98,168.33c-9.36,13.35.48,31.67,16.78,31.23l179.75-4.8c13.77-.37,23.71,13.05,19.36,26.12Z"/>
  <path class="cls-1" d="M654.19,925.58l-74.85-2.13c-8.34-.24-15.63-5.66-18.27-13.57l-94.15-282.89c-2.1-6.32-.89-13.28,3.22-18.53l32.53-41.41c5.17-6.58,13.9-9.21,21.84-6.58l342.73,113.39c10.42,3.45,16.07,14.7,12.59,25.12l-19.06,57.15c-3.41,10.22-14.35,15.86-24.65,12.7l-196.57-60.3c-15.59-4.78-29.97,10.23-24.53,25.6l58.43,164.99c4.65,13.14-5.34,26.86-19.27,26.46Z"/>
  <path class="cls-3" d="M102.64,784.27l-23.16-70.47c-2.67-8.12.16-17.03,7.01-22.13l242.19-180.04c5.35-3.98,12.34-5,18.6-2.73l49.51,17.95c7.86,2.85,13.1,10.33,13.08,18.69l-.56,360.69c-.02,10.95-8.9,19.82-19.85,19.82h-60.25c-10.8,0-19.62-8.64-19.84-19.44l-4.17-205.5c-.33-16.3-19.09-25.27-31.99-15.3l-139.58,107.96c-10.84,8.39-26.72,3.52-31-9.5Z"/>
  <path class="cls-2" d="M595.27,4.1l59.45,45.53c6.62,5.07,9.37,13.74,6.87,21.69l-89.18,284.5c-1.99,6.36-7.05,11.3-13.45,13.14l-50.61,14.55c-8.04,2.31-16.66-.66-21.57-7.44L275.98,84.63c-6.37-8.8-4.47-21.09,4.25-27.57l48.38-35.91c8.74-6.49,21.08-4.72,27.65,3.96l123.86,163.57c9.84,13,30.29,9.24,34.87-6.41l49.16-167.99c3.92-13.38,20.04-18.66,31.11-10.18Z"/>
  <path class="cls-4" d="M67.27,215.14l58.2-43.2c6.89-5.12,16.29-5.22,23.3-.26l245.41,173.76c5.43,3.85,8.58,10.16,8.37,16.82l-1.64,52.65c-.26,8.36-5.73,15.66-13.69,18.25l-342.27,111.58c-10.39,3.39-21.56-2.26-24.99-12.63L1.01,474.91c-3.4-10.28,2.06-21.39,12.28-24.97l193.9-67.94c15.31-5.37,18.07-25.84,4.72-35.06l-144.09-99.53c-11.19-7.73-11.47-24.16-.55-32.27Z"/>
</svg>